<svg xmlns="http://www.w3.org/2000/svg" xmlns:xlink="http://www.w3.org/1999/xlink" width="500" zoomAndPan="magnify" viewBox="0 0 375 374.999991" height="500" preserveAspectRatio="xMidYMid meet" version="1.0"><defs><clipPath id="6897224644"><path d="M 0.128906 124.921875 L 374.863281 124.921875 L 374.863281 250.070312 L 0.128906 250.070312 Z M 0.128906 124.921875 " clip-rule="nonzero"/></clipPath><clipPath id="7c5a001541"><path d="M 122.257812 184.875 L 252.660156 184.875 L 252.660156 250.070312 L 122.257812 250.070312 Z M 122.257812 184.875 " clip-rule="nonzero"/></clipPath><clipPath id="1ba552ecd9"><path d="M 137.597656 200.21875 L 237.320312 200.21875 L 237.320312 250.070312 L 137.597656 250.070312 Z M 137.597656 200.21875 " clip-rule="nonzero"/></clipPath></defs><g clip-path="url(#6897224644)"><path fill="#ffffff" d="M 286.695312 217.953125 C 285.9375 215.019531 286.785156 211.246094 290.078125 205.34375 C 291.796875 202.265625 293.851562 195.976562 294.398438 191.96875 C 294.574219 194.496094 294.464844 197.0625 294.027344 199.667969 C 293.355469 203.660156 291.390625 208.359375 289.578125 211.386719 C 288.15625 213.753906 287.226562 215.953125 286.695312 217.953125 Z M 267.046875 175.480469 C 266.640625 178.214844 266.621094 180.597656 266.898438 182.648438 C 265.074219 180.230469 264.414062 176.417969 265.195312 169.707031 C 265.601562 166.203125 265.097656 159.609375 264.066406 155.695312 C 265.199219 157.964844 266.082031 160.375 266.671875 162.953125 C 267.578125 166.894531 267.5625 171.992188 267.046875 175.480469 Z M 228.570312 146.304688 C 227.605469 142.910156 224.617188 137.011719 222.167969 133.792969 C 224.078125 135.453125 225.816406 137.34375 227.351562 139.496094 C 229.695312 142.796875 231.632812 147.507812 232.488281 150.929688 C 233.164062 153.609375 234.054688 155.824219 235.097656 157.613281 C 232.484375 156.070312 230.414062 152.804688 228.570312 146.304688 Z M 185.777344 138.699219 C 183.589844 135.933594 178.570312 131.628906 175.070312 129.589844 C 177.476562 130.394531 179.804688 131.476562 182.042969 132.878906 C 185.472656 135.027344 189.066406 138.640625 191.167969 141.472656 C 192.8125 143.691406 194.484375 145.394531 196.132812 146.648438 C 193.132812 146.226562 189.96875 144 185.777344 138.699219 Z M 143.328125 148.050781 C 140.25 146.332031 133.964844 144.277344 129.953125 143.730469 C 132.484375 143.550781 135.050781 143.660156 137.65625 144.101562 C 141.644531 144.773438 146.347656 146.734375 149.375 148.550781 C 151.742188 149.96875 153.9375 150.902344 155.941406 151.429688 C 153.003906 152.1875 149.230469 151.339844 143.328125 148.050781 Z M 107.691406 172.929688 C 104.191406 172.523438 97.597656 173.027344 93.683594 174.058594 C 95.949219 172.925781 98.363281 172.046875 100.9375 171.453125 C 104.882812 170.550781 109.976562 170.5625 113.46875 171.082031 C 116.199219 171.484375 118.585938 171.507812 120.636719 171.230469 C 118.214844 173.050781 114.402344 173.714844 107.691406 172.929688 Z M 84.289062 209.558594 C 80.898438 210.519531 75 213.511719 71.777344 215.960938 C 73.441406 214.046875 75.332031 212.308594 77.484375 210.777344 C 80.78125 208.433594 85.496094 206.496094 88.917969 205.636719 C 91.597656 204.964844 93.808594 204.074219 95.597656 203.03125 C 94.058594 205.640625 90.789062 207.710938 84.289062 209.558594 Z M 310.535156 241.230469 C 312.515625 234.652344 312.464844 227.527344 311.101562 220.09375 C 310.425781 224.257812 308.632812 228.304688 305.597656 231.234375 C 301.550781 235.152344 296.484375 235.941406 292.996094 233.257812 C 289.164062 230.308594 287.984375 224.003906 293.105469 215.457031 C 294.917969 212.429688 296.882812 207.726562 297.554688 203.738281 C 299.246094 193.71875 296.082031 184.28125 290.261719 175.289062 C 291.230469 179.394531 291.125 183.816406 289.445312 187.6875 C 287.203125 192.855469 282.824219 195.523438 278.578125 194.378906 C 273.90625 193.121094 270.402344 187.75 271.859375 177.890625 C 272.382812 174.398438 272.394531 169.304688 271.488281 165.363281 C 269.214844 155.457031 262.683594 147.949219 253.867188 141.867188 C 256.332031 145.289062 257.925781 149.417969 257.855469 153.636719 C 257.761719 159.269531 254.738281 163.410156 250.375 163.976562 C 245.578125 164.601562 240.285156 160.980469 237.863281 151.3125 C 237 147.890625 235.066406 143.179688 232.722656 139.882812 C 226.828125 131.601562 217.921875 127.164062 207.449219 124.921875 C 211.039062 127.136719 214.089844 130.34375 215.636719 134.269531 C 217.707031 139.503906 216.5 144.488281 212.683594 146.683594 C 208.492188 149.09375 202.214844 147.773438 196.277344 139.773438 C 194.175781 136.9375 190.582031 133.324219 187.15625 131.175781 C 178.542969 125.78125 168.613281 125.089844 158.078125 127.027344 C 162.242188 127.703125 166.289062 129.496094 169.222656 132.527344 C 173.136719 136.574219 173.929688 141.640625 171.246094 145.128906 C 168.296875 148.960938 161.992188 150.144531 153.441406 145.023438 C 150.414062 143.207031 145.714844 141.246094 141.722656 140.574219 C 131.703125 138.882812 122.265625 142.042969 113.273438 147.863281 C 117.382812 146.894531 121.804688 147.003906 125.675781 148.683594 C 130.839844 150.921875 133.511719 155.300781 132.367188 159.550781 C 131.109375 164.21875 125.734375 167.722656 115.878906 166.265625 C 112.386719 165.746094 107.292969 165.734375 103.347656 166.636719 C 93.445312 168.914062 85.9375 175.445312 79.855469 184.261719 C 83.277344 181.796875 87.40625 180.203125 91.625 180.273438 C 97.253906 180.367188 101.394531 183.386719 101.964844 187.753906 C 102.589844 192.546875 98.964844 197.84375 89.300781 200.265625 C 85.878906 201.125 81.164062 203.058594 77.867188 205.40625 C 69.585938 211.296875 65.152344 220.203125 62.90625 230.679688 C 65.125 227.089844 68.332031 224.039062 72.253906 222.488281 C 77.492188 220.421875 82.472656 221.628906 84.667969 225.441406 C 85.679688 227.195312 86.035156 229.320312 85.519531 231.628906 C 84.570312 235.859375 80.941406 238.96875 76.648438 239.558594 L 0.128906 250.070312 L 97.578125 250.070312 C 98.191406 200.621094 138.460938 160.722656 188.054688 160.722656 C 237.652344 160.722656 277.921875 200.621094 278.539062 250.070312 L 374.863281 250.070312 L 310.535156 241.230469 " fill-opacity="1" fill-rule="nonzero"/></g><g clip-path="url(#7c5a001541)"><path fill="#ffffff" d="M 187.496094 184.941406 C 151.585938 184.941406 122.367188 214.15625 122.367188 250.070312 L 127.476562 250.070312 C 127.476562 216.976562 154.398438 190.050781 187.496094 190.050781 C 220.589844 190.050781 247.515625 216.976562 247.515625 250.070312 L 252.625 250.070312 C 252.625 214.15625 223.40625 184.941406 187.496094 184.941406 " fill-opacity="1" fill-rule="nonzero"/></g><g clip-path="url(#1ba552ecd9)"><path fill="#ffffff" d="M 187.496094 200.308594 C 160.015625 200.308594 137.734375 222.585938 137.734375 250.070312 L 178.585938 250.070312 C 178.585938 245.148438 182.574219 241.160156 187.496094 241.160156 C 192.417969 241.160156 196.40625 245.148438 196.40625 250.070312 L 237.257812 250.070312 C 237.257812 222.585938 214.976562 200.308594 187.496094 200.308594 " fill-opacity="1" fill-rule="nonzero"/></g></svg>